<svg id="visual" viewBox="0 0 2000 540" width="2000" height="540" xmlns="http://www.w3.org/2000/svg" xmlns:xlink="http://www.w3.org/1999/xlink" version="1.1"><rect x="0" y="0" width="2000" height="540" fill="#d3ffc5"></rect><defs><linearGradient id="grad1_0" x1="73%" y1="0%" x2="100%" y2="100%"><stop offset="-24.074074074074076%" stop-color="#d3ffc5" stop-opacity="1"></stop><stop offset="124.07407407407408%" stop-color="#d3ffc5" stop-opacity="1"></stop></linearGradient></defs><defs><linearGradient id="grad2_0" x1="0%" y1="0%" x2="27%" y2="100%"><stop offset="-24.074074074074076%" stop-color="#d3ffc5" stop-opacity="1"></stop><stop offset="124.07407407407408%" stop-color="#d3ffc5" stop-opacity="1"></stop></linearGradient></defs><g transform="translate(2000, 0)"><path d="M0 459C-46.7 448.5 -93.3 438 -138.1 425.1C-182.9 412.2 -225.8 396.8 -269.8 371.3C-313.8 345.9 -358.8 310.3 -360.8 262.2C-362.8 214 -321.8 153.3 -331 107.5C-340.2 61.8 -399.6 30.9 -459 0L0 0Z" fill="#f4ec5e"></path></g><g transform="translate(0, 540)"><path d="M0 -459C53.1 -463.2 106.3 -467.4 141.8 -436.5C177.4 -405.6 195.4 -339.7 215.7 -296.9C236 -254.2 258.7 -234.7 292.9 -212.8C327 -190.9 372.7 -166.6 402.3 -130.7C431.9 -94.9 445.5 -47.4 459 0L0 0Z" fill="#f4ec5e"></path></g></svg>