<svg id="visual" viewBox="0 0 1700 540" width="1700" height="540" xmlns="http://www.w3.org/2000/svg" xmlns:xlink="http://www.w3.org/1999/xlink" version="1.1"><path d="M0 349L31.5 336.7C63 324.3 126 299.7 189 313.8C252 328 315 381 378 384.3C441 387.7 504 341.3 567 331.2C630 321 693 347 755.8 361.8C818.7 376.7 881.3 380.3 944.2 369C1007 357.7 1070 331.3 1133 308.2C1196 285 1259 265 1322 267.5C1385 270 1448 295 1511 301.5C1574 308 1637 296 1668.5 290L1700 284L1700 541L1668.5 541C1637 541 1574 541 1511 541C1448 541 1385 541 1322 541C1259 541 1196 541 1133 541C1070 541 1007 541 944.2 541C881.3 541 818.7 541 755.8 541C693 541 630 541 567 541C504 541 441 541 378 541C315 541 252 541 189 541C126 541 63 541 31.5 541L0 541Z" fill="#fa7268"></path><path d="M0 336L31.5 341.5C63 347 126 358 189 360C252 362 315 355 378 368.2C441 381.3 504 414.7 567 403.5C630 392.3 693 336.7 755.8 326C818.7 315.3 881.3 349.7 944.2 376.2C1007 402.7 1070 421.3 1133 427.8C1196 434.3 1259 428.7 1322 426.5C1385 424.3 1448 425.7 1511 422.7C1574 419.7 1637 412.3 1668.5 408.7L1700 405L1700 541L1668.5 541C1637 541 1574 541 1511 541C1448 541 1385 541 1322 541C1259 541 1196 541 1133 541C1070 541 1007 541 944.2 541C881.3 541 818.7 541 755.8 541C693 541 630 541 567 541C504 541 441 541 378 541C315 541 252 541 189 541C126 541 63 541 31.5 541L0 541Z" fill="#f36567"></path><path d="M0 423L31.5 418.7C63 414.3 126 405.7 189 408C252 410.3 315 423.7 378 423.7C441 423.7 504 410.3 567 395.8C630 381.3 693 365.7 755.8 355.8C818.7 346 881.3 342 944.2 346.2C1007 350.3 1070 362.7 1133 378.7C1196 394.7 1259 414.3 1322 407C1385 399.7 1448 365.3 1511 353.2C1574 341 1637 351 1668.5 356L1700 361L1700 541L1668.5 541C1637 541 1574 541 1511 541C1448 541 1385 541 1322 541C1259 541 1196 541 1133 541C1070 541 1007 541 944.2 541C881.3 541 818.7 541 755.8 541C693 541 630 541 567 541C504 541 441 541 378 541C315 541 252 541 189 541C126 541 63 541 31.5 541L0 541Z" fill="#eb5967"></path><path d="M0 366L31.5 385C63 404 126 442 189 443.7C252 445.3 315 410.7 378 396.3C441 382 504 388 567 386.7C630 385.3 693 376.7 755.8 370.7C818.7 364.7 881.3 361.3 944.2 371.3C1007 381.3 1070 404.7 1133 404.7C1196 404.7 1259 381.3 1322 379C1385 376.7 1448 395.3 1511 412.3C1574 429.3 1637 444.7 1668.5 452.3L1700 460L1700 541L1668.5 541C1637 541 1574 541 1511 541C1448 541 1385 541 1322 541C1259 541 1196 541 1133 541C1070 541 1007 541 944.2 541C881.3 541 818.7 541 755.8 541C693 541 630 541 567 541C504 541 441 541 378 541C315 541 252 541 189 541C126 541 63 541 31.5 541L0 541Z" fill="#e34c67"></path><path d="M0 408L31.5 419.8C63 431.7 126 455.3 189 457C252 458.7 315 438.3 378 435.7C441 433 504 448 567 446.2C630 444.3 693 425.7 755.8 425.2C818.7 424.7 881.3 442.3 944.2 446.3C1007 450.3 1070 440.7 1133 430C1196 419.3 1259 407.7 1322 413.8C1385 420 1448 444 1511 444.5C1574 445 1637 422 1668.5 410.5L1700 399L1700 541L1668.5 541C1637 541 1574 541 1511 541C1448 541 1385 541 1322 541C1259 541 1196 541 1133 541C1070 541 1007 541 944.2 541C881.3 541 818.7 541 755.8 541C693 541 630 541 567 541C504 541 441 541 378 541C315 541 252 541 189 541C126 541 63 541 31.5 541L0 541Z" fill="#da3f67"></path><path d="M0 487L31.5 491C63 495 126 503 189 507.8C252 512.7 315 514.3 378 512.5C441 510.7 504 505.3 567 492.7C630 480 693 460 755.8 454.2C818.7 448.3 881.3 456.7 944.2 456.8C1007 457 1070 449 1133 446.2C1196 443.3 1259 445.7 1322 448.5C1385 451.3 1448 454.7 1511 460.7C1574 466.7 1637 475.3 1668.5 479.7L1700 484L1700 541L1668.5 541C1637 541 1574 541 1511 541C1448 541 1385 541 1322 541C1259 541 1196 541 1133 541C1070 541 1007 541 944.2 541C881.3 541 818.7 541 755.8 541C693 541 630 541 567 541C504 541 441 541 378 541C315 541 252 541 189 541C126 541 63 541 31.5 541L0 541Z" fill="#d03267"></path><path d="M0 520L31.5 512C63 504 126 488 189 486C252 484 315 496 378 504C441 512 504 516 567 514C630 512 693 504 755.8 500.5C818.7 497 881.3 498 944.2 500.2C1007 502.3 1070 505.7 1133 509.5C1196 513.3 1259 517.7 1322 520.8C1385 524 1448 526 1511 520.5C1574 515 1637 502 1668.5 495.5L1700 489L1700 541L1668.5 541C1637 541 1574 541 1511 541C1448 541 1385 541 1322 541C1259 541 1196 541 1133 541C1070 541 1007 541 944.2 541C881.3 541 818.7 541 755.8 541C693 541 630 541 567 541C504 541 441 541 378 541C315 541 252 541 189 541C126 541 63 541 31.5 541L0 541Z" fill="#c62368"></path></svg>