<svg id="visual" viewBox="0 0 2000 1100" width="2000" height="1100" xmlns="http://www.w3.org/2000/svg" xmlns:xlink="http://www.w3.org/1999/xlink" version="1.1"><path d="M0 144L25.7 127.5C51.3 111 102.7 78 154 61.5C205.3 45 256.7 45 308 54.2C359.3 63.3 410.7 81.7 461.8 92.7C513 103.7 564 107.3 615.2 100C666.3 92.7 717.7 74.3 769 74.3C820.3 74.3 871.7 92.7 923 101.8C974.3 111 1025.7 111 1077 109.2C1128.3 107.3 1179.7 103.7 1231 107.3C1282.3 111 1333.7 122 1384.8 118.3C1436 114.7 1487 96.3 1538.2 94.5C1589.3 92.7 1640.7 107.3 1692 112.8C1743.3 118.3 1794.7 114.7 1846 112.8C1897.3 111 1948.7 111 1974.3 111L2000 111L2000 0L1974.3 0C1948.7 0 1897.3 0 1846 0C1794.7 0 1743.3 0 1692 0C1640.7 0 1589.3 0 1538.2 0C1487 0 1436 0 1384.8 0C1333.7 0 1282.3 0 1231 0C1179.7 0 1128.3 0 1077 0C1025.7 0 974.3 0 923 0C871.7 0 820.3 0 769 0C717.7 0 666.3 0 615.2 0C564 0 513 0 461.8 0C410.7 0 359.3 0 308 0C256.7 0 205.3 0 154 0C102.7 0 51.3 0 25.7 0L0 0Z" fill="#9fd373"></path><path d="M0 166L25.7 164.2C51.3 162.3 102.7 158.7 154 144C205.3 129.3 256.7 103.7 308 107.3C359.3 111 410.7 144 461.8 160.5C513 177 564 177 615.2 167.8C666.3 158.7 717.7 140.3 769 133C820.3 125.7 871.7 129.3 923 138.5C974.3 147.7 1025.7 162.3 1077 160.5C1128.3 158.7 1179.7 140.3 1231 151.3C1282.3 162.3 1333.7 202.7 1384.8 204.5C1436 206.3 1487 169.7 1538.2 155C1589.3 140.3 1640.7 147.7 1692 155C1743.3 162.3 1794.7 169.7 1846 177C1897.3 184.3 1948.7 191.7 1974.3 195.3L2000 199L2000 109L1974.3 109C1948.7 109 1897.3 109 1846 110.8C1794.7 112.7 1743.3 116.3 1692 110.8C1640.7 105.3 1589.3 90.7 1538.2 92.5C1487 94.3 1436 112.7 1384.8 116.3C1333.7 120 1282.3 109 1231 105.3C1179.7 101.7 1128.3 105.3 1077 107.2C1025.7 109 974.3 109 923 99.8C871.7 90.7 820.3 72.3 769 72.3C717.7 72.3 666.3 90.7 615.2 98C564 105.3 513 101.7 461.8 90.7C410.7 79.7 359.3 61.3 308 52.2C256.7 43 205.3 43 154 59.5C102.7 76 51.3 109 25.7 125.5L0 142Z" fill="#bfde7a"></path><path d="M0 210L25.7 221C51.3 232 102.7 254 154 239.3C205.3 224.7 256.7 173.3 308 169.7C359.3 166 410.7 210 461.8 224.7C513 239.3 564 224.7 615.2 213.7C666.3 202.7 717.7 195.3 769 199C820.3 202.7 871.7 217.3 923 241.2C974.3 265 1025.7 298 1077 296.2C1128.3 294.3 1179.7 257.7 1231 266.8C1282.3 276 1333.7 331 1384.8 331C1436 331 1487 276 1538.2 252.2C1589.3 228.3 1640.7 235.7 1692 241.2C1743.3 246.7 1794.7 250.3 1846 254C1897.3 257.7 1948.7 261.3 1974.3 263.2L2000 265L2000 197L1974.3 193.3C1948.7 189.7 1897.3 182.3 1846 175C1794.7 167.7 1743.3 160.3 1692 153C1640.7 145.7 1589.3 138.3 1538.2 153C1487 167.7 1436 204.3 1384.8 202.5C1333.7 200.7 1282.3 160.3 1231 149.3C1179.7 138.3 1128.3 156.7 1077 158.5C1025.7 160.3 974.3 145.7 923 136.5C871.7 127.3 820.3 123.7 769 131C717.7 138.3 666.3 156.7 615.2 165.8C564 175 513 175 461.8 158.5C410.7 142 359.3 109 308 105.3C256.7 101.7 205.3 127.3 154 142C102.7 156.7 51.3 160.3 25.7 162.2L0 164Z" fill="#dfe885"></path><path d="M0 331L25.7 354.8C51.3 378.7 102.7 426.3 154 409.8C205.3 393.3 256.7 312.7 308 310.8C359.3 309 410.7 386 461.8 422.7C513 459.3 564 455.7 615.2 437.3C666.3 419 717.7 386 769 386C820.3 386 871.7 419 923 426.3C974.3 433.7 1025.7 415.3 1077 389.7C1128.3 364 1179.7 331 1231 358.5C1282.3 386 1333.7 474 1384.8 497.8C1436 521.7 1487 481.3 1538.2 441C1589.3 400.7 1640.7 360.3 1692 360.3C1743.3 360.3 1794.7 400.7 1846 404.3C1897.3 408 1948.7 375 1974.3 358.5L2000 342L2000 263L1974.3 261.2C1948.7 259.3 1897.3 255.7 1846 252C1794.7 248.3 1743.3 244.7 1692 239.2C1640.7 233.7 1589.3 226.3 1538.2 250.2C1487 274 1436 329 1384.8 329C1333.7 329 1282.3 274 1231 264.8C1179.7 255.7 1128.3 292.3 1077 294.2C1025.7 296 974.3 263 923 239.2C871.7 215.3 820.3 200.7 769 197C717.7 193.3 666.3 200.7 615.2 211.7C564 222.7 513 237.3 461.8 222.7C410.7 208 359.3 164 308 167.7C256.7 171.3 205.3 222.7 154 237.3C102.7 252 51.3 230 25.7 219L0 208Z" fill="#f7f18f"></path><path d="M0 419L25.7 435.5C51.3 452 102.7 485 154 472.2C205.3 459.3 256.7 400.7 308 402.5C359.3 404.3 410.7 466.7 461.8 497.8C513 529 564 529 615.2 516.2C666.3 503.3 717.7 477.7 769 479.5C820.3 481.3 871.7 510.7 923 514.3C974.3 518 1025.7 496 1077 461.2C1128.3 426.3 1179.7 378.7 1231 408C1282.3 437.3 1333.7 543.7 1384.8 567.5C1436 591.3 1487 532.7 1538.2 492.3C1589.3 452 1640.7 430 1692 433.7C1743.3 437.3 1794.7 466.7 1846 468.5C1897.3 470.3 1948.7 444.7 1974.3 431.8L2000 419L2000 340L1974.3 356.5C1948.7 373 1897.3 406 1846 402.3C1794.7 398.7 1743.3 358.3 1692 358.3C1640.7 358.3 1589.3 398.7 1538.2 439C1487 479.3 1436 519.7 1384.8 495.8C1333.7 472 1282.3 384 1231 356.5C1179.7 329 1128.3 362 1077 387.7C1025.7 413.3 974.3 431.7 923 424.3C871.7 417 820.3 384 769 384C717.7 384 666.3 417 615.2 435.3C564 453.7 513 457.3 461.8 420.7C410.7 384 359.3 307 308 308.8C256.7 310.7 205.3 391.3 154 407.8C102.7 424.3 51.3 376.7 25.7 352.8L0 329Z" fill="#f7f18f"></path><path d="M0 584L25.7 637.2C51.3 690.3 102.7 796.7 154 838.8C205.3 881 256.7 859 308 827.8C359.3 796.7 410.7 756.3 461.8 774.7C513 793 564 870 615.2 877.3C666.3 884.7 717.7 822.3 769 802.2C820.3 782 871.7 804 923 789.3C974.3 774.7 1025.7 723.3 1077 723.3C1128.3 723.3 1179.7 774.7 1231 811.3C1282.3 848 1333.7 870 1384.8 831.5C1436 793 1487 694 1538.2 675.7C1589.3 657.3 1640.7 719.7 1692 734.3C1743.3 749 1794.7 716 1846 697.7C1897.3 679.3 1948.7 675.7 1974.3 673.8L2000 672L2000 417L1974.3 429.8C1948.7 442.7 1897.3 468.3 1846 466.5C1794.7 464.7 1743.3 435.3 1692 431.7C1640.7 428 1589.3 450 1538.2 490.3C1487 530.7 1436 589.3 1384.8 565.5C1333.7 541.7 1282.3 435.3 1231 406C1179.7 376.7 1128.3 424.3 1077 459.2C1025.7 494 974.3 516 923 512.3C871.7 508.7 820.3 479.3 769 477.5C717.7 475.7 666.3 501.3 615.2 514.2C564 527 513 527 461.8 495.8C410.7 464.7 359.3 402.3 308 400.5C256.7 398.7 205.3 457.3 154 470.2C102.7 483 51.3 450 25.7 433.5L0 417Z" fill="#dfe885"></path><path d="M0 947L25.7 965.3C51.3 983.7 102.7 1020.3 154 1036.8C205.3 1053.3 256.7 1049.7 308 1040.5C359.3 1031.3 410.7 1016.7 461.8 1018.5C513 1020.3 564 1038.7 615.2 1033.2C666.3 1027.7 717.7 998.3 769 976.3C820.3 954.3 871.7 939.7 923 937.8C974.3 936 1025.7 947 1077 961.7C1128.3 976.3 1179.7 994.7 1231 1003.8C1282.3 1013 1333.7 1013 1384.8 1005.7C1436 998.3 1487 983.7 1538.2 970.8C1589.3 958 1640.7 947 1692 956.2C1743.3 965.3 1794.7 994.7 1846 1000.2C1897.3 1005.7 1948.7 987.3 1974.3 978.2L2000 969L2000 670L1974.3 671.8C1948.7 673.7 1897.3 677.3 1846 695.7C1794.7 714 1743.3 747 1692 732.3C1640.7 717.7 1589.3 655.3 1538.2 673.7C1487 692 1436 791 1384.8 829.5C1333.7 868 1282.3 846 1231 809.3C1179.7 772.7 1128.3 721.3 1077 721.3C1025.7 721.3 974.3 772.7 923 787.3C871.7 802 820.3 780 769 800.2C717.7 820.3 666.3 882.7 615.2 875.3C564 868 513 791 461.8 772.7C410.7 754.3 359.3 794.7 308 825.8C256.7 857 205.3 879 154 836.8C102.7 794.7 51.3 688.3 25.7 635.2L0 582Z" fill="#bfde7a"></path><path d="M0 1101L25.7 1101C51.3 1101 102.7 1101 154 1101C205.3 1101 256.7 1101 308 1101C359.3 1101 410.7 1101 461.8 1101C513 1101 564 1101 615.2 1101C666.3 1101 717.7 1101 769 1101C820.3 1101 871.7 1101 923 1101C974.3 1101 1025.7 1101 1077 1101C1128.3 1101 1179.7 1101 1231 1101C1282.3 1101 1333.7 1101 1384.8 1101C1436 1101 1487 1101 1538.2 1101C1589.3 1101 1640.7 1101 1692 1101C1743.3 1101 1794.7 1101 1846 1101C1897.3 1101 1948.7 1101 1974.3 1101L2000 1101L2000 967L1974.3 976.2C1948.7 985.3 1897.3 1003.7 1846 998.2C1794.7 992.7 1743.3 963.3 1692 954.2C1640.7 945 1589.3 956 1538.2 968.8C1487 981.7 1436 996.3 1384.8 1003.7C1333.7 1011 1282.3 1011 1231 1001.8C1179.7 992.7 1128.3 974.3 1077 959.7C1025.7 945 974.3 934 923 935.8C871.7 937.7 820.3 952.3 769 974.3C717.7 996.3 666.3 1025.7 615.2 1031.2C564 1036.7 513 1018.3 461.8 1016.5C410.7 1014.7 359.3 1029.3 308 1038.5C256.7 1047.7 205.3 1051.3 154 1034.8C102.7 1018.3 51.3 981.7 25.7 963.3L0 945Z" fill="#9fd373"></path></svg>