<svg id="visual" viewBox="0 0 2000 540" width="2000" height="540" xmlns="http://www.w3.org/2000/svg" xmlns:xlink="http://www.w3.org/1999/xlink" version="1.1"><path d="M0 299L25.7 283.2C51.3 267.3 102.7 235.7 154 231C205.3 226.3 256.7 248.7 308 254.2C359.3 259.7 410.7 248.3 461.8 265.8C513 283.3 564 329.7 615.2 345C666.3 360.3 717.7 344.7 769 319.3C820.3 294 871.7 259 923 251.2C974.3 243.3 1025.7 262.7 1077 268.5C1128.3 274.3 1179.7 266.7 1231 256.8C1282.3 247 1333.7 235 1384.8 254.7C1436 274.3 1487 325.7 1538.2 346.5C1589.3 367.3 1640.7 357.7 1692 335C1743.3 312.3 1794.7 276.7 1846 259.5C1897.3 242.3 1948.7 243.7 1974.3 244.3L2000 245L2000 541L1974.3 541C1948.7 541 1897.3 541 1846 541C1794.7 541 1743.3 541 1692 541C1640.7 541 1589.3 541 1538.2 541C1487 541 1436 541 1384.8 541C1333.7 541 1282.3 541 1231 541C1179.7 541 1128.3 541 1077 541C1025.7 541 974.3 541 923 541C871.7 541 820.3 541 769 541C717.7 541 666.3 541 615.2 541C564 541 513 541 461.8 541C410.7 541 359.3 541 308 541C256.7 541 205.3 541 154 541C102.7 541 51.3 541 25.7 541L0 541Z" fill="#f4ec5e"></path><path d="M0 356L25.7 349.2C51.3 342.3 102.7 328.7 154 327.7C205.3 326.7 256.7 338.3 308 328.7C359.3 319 410.7 288 461.8 283C513 278 564 299 615.2 312C666.3 325 717.7 330 769 346.2C820.3 362.3 871.7 389.7 923 396.8C974.3 404 1025.7 391 1077 385.2C1128.3 379.3 1179.7 380.7 1231 371.7C1282.3 362.7 1333.7 343.3 1384.8 324.7C1436 306 1487 288 1538.2 299.2C1589.3 310.3 1640.7 350.7 1692 372.3C1743.3 394 1794.7 397 1846 400.3C1897.3 403.7 1948.7 407.3 1974.3 409.2L2000 411L2000 541L1974.3 541C1948.7 541 1897.3 541 1846 541C1794.7 541 1743.3 541 1692 541C1640.7 541 1589.3 541 1538.2 541C1487 541 1436 541 1384.8 541C1333.7 541 1282.3 541 1231 541C1179.7 541 1128.3 541 1077 541C1025.7 541 974.3 541 923 541C871.7 541 820.3 541 769 541C717.7 541 666.3 541 615.2 541C564 541 513 541 461.8 541C410.7 541 359.3 541 308 541C256.7 541 205.3 541 154 541C102.7 541 51.3 541 25.7 541L0 541Z" fill="#e2e656"></path><path d="M0 343L25.7 337.7C51.3 332.3 102.7 321.7 154 315C205.3 308.3 256.7 305.7 308 323.8C359.3 342 410.7 381 461.8 390.7C513 400.3 564 380.7 615.2 371.5C666.3 362.3 717.7 363.7 769 373.7C820.3 383.7 871.7 402.3 923 390C974.3 377.7 1025.7 334.3 1077 312.3C1128.3 290.3 1179.7 289.7 1231 286.7C1282.3 283.7 1333.7 278.3 1384.8 293.3C1436 308.3 1487 343.7 1538.2 357.3C1589.3 371 1640.7 363 1692 349.2C1743.3 335.3 1794.7 315.7 1846 306.8C1897.3 298 1948.7 300 1974.3 301L2000 302L2000 541L1974.3 541C1948.7 541 1897.3 541 1846 541C1794.7 541 1743.3 541 1692 541C1640.7 541 1589.3 541 1538.2 541C1487 541 1436 541 1384.8 541C1333.7 541 1282.3 541 1231 541C1179.7 541 1128.3 541 1077 541C1025.7 541 974.3 541 923 541C871.7 541 820.3 541 769 541C717.7 541 666.3 541 615.2 541C564 541 513 541 461.8 541C410.7 541 359.3 541 308 541C256.7 541 205.3 541 154 541C102.7 541 51.3 541 25.7 541L0 541Z" fill="#cfdf4e"></path><path d="M0 407L25.7 397.2C51.3 387.3 102.7 367.7 154 351.7C205.3 335.7 256.7 323.3 308 336.5C359.3 349.7 410.7 388.3 461.8 401C513 413.7 564 400.3 615.2 382C666.3 363.7 717.7 340.3 769 332.3C820.3 324.3 871.7 331.7 923 332.2C974.3 332.7 1025.7 326.3 1077 332.8C1128.3 339.3 1179.7 358.7 1231 379.7C1282.3 400.7 1333.7 423.3 1384.8 420C1436 416.7 1487 387.3 1538.2 386.5C1589.3 385.7 1640.7 413.3 1692 420.7C1743.3 428 1794.7 415 1846 395C1897.3 375 1948.7 348 1974.3 334.5L2000 321L2000 541L1974.3 541C1948.7 541 1897.3 541 1846 541C1794.7 541 1743.3 541 1692 541C1640.7 541 1589.3 541 1538.2 541C1487 541 1436 541 1384.8 541C1333.7 541 1282.3 541 1231 541C1179.7 541 1128.3 541 1077 541C1025.7 541 974.3 541 923 541C871.7 541 820.3 541 769 541C717.7 541 666.3 541 615.2 541C564 541 513 541 461.8 541C410.7 541 359.3 541 308 541C256.7 541 205.3 541 154 541C102.7 541 51.3 541 25.7 541L0 541Z" fill="#bcd948"></path><path d="M0 413L25.7 408.3C51.3 403.7 102.7 394.3 154 383.8C205.3 373.3 256.7 361.7 308 367.2C359.3 372.7 410.7 395.3 461.8 400.7C513 406 564 394 615.2 396.3C666.3 398.7 717.7 415.3 769 424.7C820.3 434 871.7 436 923 434.3C974.3 432.7 1025.7 427.3 1077 420.3C1128.3 413.3 1179.7 404.7 1231 400C1282.3 395.3 1333.7 394.7 1384.8 387.7C1436 380.7 1487 367.3 1538.2 361.2C1589.3 355 1640.7 356 1692 357.3C1743.3 358.7 1794.7 360.3 1846 361.3C1897.3 362.3 1948.7 362.7 1974.3 362.8L2000 363L2000 541L1974.3 541C1948.7 541 1897.3 541 1846 541C1794.7 541 1743.3 541 1692 541C1640.7 541 1589.3 541 1538.2 541C1487 541 1436 541 1384.8 541C1333.7 541 1282.3 541 1231 541C1179.7 541 1128.3 541 1077 541C1025.7 541 974.3 541 923 541C871.7 541 820.3 541 769 541C717.7 541 666.3 541 615.2 541C564 541 513 541 461.8 541C410.7 541 359.3 541 308 541C256.7 541 205.3 541 154 541C102.7 541 51.3 541 25.7 541L0 541Z" fill="#a9d242"></path><path d="M0 426L25.7 428.5C51.3 431 102.7 436 154 437.3C205.3 438.7 256.7 436.3 308 440.2C359.3 444 410.7 454 461.8 458.5C513 463 564 462 615.2 455.2C666.3 448.3 717.7 435.7 769 428C820.3 420.3 871.7 417.7 923 411.8C974.3 406 1025.7 397 1077 392.8C1128.3 388.7 1179.7 389.3 1231 399.5C1282.3 409.7 1333.7 429.3 1384.8 441.2C1436 453 1487 457 1538.2 457.2C1589.3 457.3 1640.7 453.7 1692 444.3C1743.3 435 1794.7 420 1846 421C1897.3 422 1948.7 439 1974.3 447.5L2000 456L2000 541L1974.3 541C1948.7 541 1897.3 541 1846 541C1794.7 541 1743.3 541 1692 541C1640.7 541 1589.3 541 1538.2 541C1487 541 1436 541 1384.8 541C1333.7 541 1282.3 541 1231 541C1179.7 541 1128.3 541 1077 541C1025.7 541 974.3 541 923 541C871.7 541 820.3 541 769 541C717.7 541 666.3 541 615.2 541C564 541 513 541 461.8 541C410.7 541 359.3 541 308 541C256.7 541 205.3 541 154 541C102.7 541 51.3 541 25.7 541L0 541Z" fill="#95cb3d"></path><path d="M0 473L25.7 466.2C51.3 459.3 102.7 445.7 154 440.3C205.3 435 256.7 438 308 443.7C359.3 449.3 410.7 457.7 461.8 458.3C513 459 564 452 615.2 448C666.3 444 717.7 443 769 442.5C820.3 442 871.7 442 923 443.8C974.3 445.7 1025.7 449.3 1077 447C1128.3 444.7 1179.7 436.3 1231 433.3C1282.3 430.3 1333.7 432.7 1384.8 443.2C1436 453.7 1487 472.3 1538.2 477.3C1589.3 482.3 1640.7 473.7 1692 469.5C1743.3 465.3 1794.7 465.7 1846 467.7C1897.3 469.7 1948.7 473.3 1974.3 475.2L2000 477L2000 541L1974.3 541C1948.7 541 1897.3 541 1846 541C1794.7 541 1743.3 541 1692 541C1640.7 541 1589.3 541 1538.2 541C1487 541 1436 541 1384.8 541C1333.7 541 1282.3 541 1231 541C1179.7 541 1128.3 541 1077 541C1025.7 541 974.3 541 923 541C871.7 541 820.3 541 769 541C717.7 541 666.3 541 615.2 541C564 541 513 541 461.8 541C410.7 541 359.3 541 308 541C256.7 541 205.3 541 154 541C102.7 541 51.3 541 25.7 541L0 541Z" fill="#81c539"></path><path d="M0 446L25.7 456.5C51.3 467 102.7 488 154 490.8C205.3 493.7 256.7 478.3 308 477.8C359.3 477.3 410.7 491.7 461.8 493C513 494.3 564 482.7 615.2 482.7C666.3 482.7 717.7 494.3 769 499.3C820.3 504.3 871.7 502.7 923 492.5C974.3 482.3 1025.7 463.7 1077 462.5C1128.3 461.3 1179.7 477.7 1231 481C1282.3 484.3 1333.7 474.7 1384.8 476.8C1436 479 1487 493 1538.2 490.3C1589.3 487.7 1640.7 468.3 1692 461.2C1743.3 454 1794.7 459 1846 469.3C1897.3 479.7 1948.7 495.3 1974.3 503.2L2000 511L2000 541L1974.3 541C1948.7 541 1897.3 541 1846 541C1794.7 541 1743.3 541 1692 541C1640.7 541 1589.3 541 1538.2 541C1487 541 1436 541 1384.8 541C1333.7 541 1282.3 541 1231 541C1179.7 541 1128.3 541 1077 541C1025.7 541 974.3 541 923 541C871.7 541 820.3 541 769 541C717.7 541 666.3 541 615.2 541C564 541 513 541 461.8 541C410.7 541 359.3 541 308 541C256.7 541 205.3 541 154 541C102.7 541 51.3 541 25.7 541L0 541Z" fill="#6bbe37"></path><path d="M0 504L25.7 501C51.3 498 102.7 492 154 493.8C205.3 495.7 256.7 505.3 308 505.2C359.3 505 410.7 495 461.8 490C513 485 564 485 615.2 488.3C666.3 491.7 717.7 498.3 769 501.3C820.3 504.3 871.7 503.7 923 504.7C974.3 505.7 1025.7 508.3 1077 509C1128.3 509.7 1179.7 508.3 1231 506.7C1282.3 505 1333.7 503 1384.8 499.7C1436 496.3 1487 491.7 1538.2 494.2C1589.3 496.7 1640.7 506.3 1692 510.8C1743.3 515.3 1794.7 514.7 1846 514.2C1897.3 513.7 1948.7 513.3 1974.3 513.2L2000 513L2000 541L1974.3 541C1948.7 541 1897.3 541 1846 541C1794.7 541 1743.3 541 1692 541C1640.7 541 1589.3 541 1538.2 541C1487 541 1436 541 1384.8 541C1333.7 541 1282.3 541 1231 541C1179.7 541 1128.3 541 1077 541C1025.7 541 974.3 541 923 541C871.7 541 820.3 541 769 541C717.7 541 666.3 541 615.2 541C564 541 513 541 461.8 541C410.7 541 359.3 541 308 541C256.7 541 205.3 541 154 541C102.7 541 51.3 541 25.7 541L0 541Z" fill="#53b735"></path></svg>